# xmcd
# 
# Track frame offsets:
#     182
#     18302
#     38392
#     55752
#     72122
#     88847
#     107727
#     125422
#     143192
#     161985
#     180675
# 
# Disc length: 2610
# 
# Revision: 1
# Processed by: cddbd v1.5.2PL0 Copyright (c) Steve Scherf et al.
# Submitted via: BonkEnc v1.0.6
# 
DISCID=900a300b
DTITLE=Bernie Bonvoisin - En avoir ou pas
DYEAR=1988
DGENRE=Blues
TTITLE0=Du noir, du blanc, du blues
TTITLE1=Plus d'espoir
TTITLE2=Envie de hurler
TTITLE3=Je te suivrai
TTITLE4=Tu retourneras marcher
TTITLE5=Plus rien ne m'étonne
TTITLE6=Sans faire d'histoire
TTITLE7=L'indifférence
TTITLE8=Autopsie d'un jeu
TTITLE9=Descendu en flammes
TTITLE10=Jamais assez
EXTD=YEAR: 1988 ID3G: 0
EXTT0=
EXTT1=
EXTT2=
EXTT3=
EXTT4=
EXTT5=
EXTT6=
EXTT7=
EXTT8=
EXTT9=
EXTT10=
PLAYORDER=
